<svg width="1309" height="615" viewBox="0 0 1309 615" fill="none" xmlns="http://www.w3.org/2000/svg">
<path fill-rule="evenodd" clip-rule="evenodd" d="M35.4159 3.72133C39.9233 3.72133 67.9059 31.2887 67.9059 35.3553C67.9059 39.422 39.9233 66.9893 35.4159 66.9893C30.9085 66.9893 2.71188 39.422 2.71188 35.3553C2.71188 31.2887 30.9085 3.72133 35.4159 3.72133Z" fill="#EEF3FB"/>
<path fill-rule="evenodd" clip-rule="evenodd" d="M1301.08 459.744C1301.98 459.744 1307.58 465.258 1307.58 466.071C1307.58 466.884 1301.98 472.398 1301.08 472.398C1300.18 472.398 1294.54 466.884 1294.54 466.071C1294.54 465.258 1300.18 459.744 1301.08 459.744Z" fill="#FFC729"/>
<path fill-rule="evenodd" clip-rule="evenodd" d="M277.601 520.754C279.855 520.754 293.846 534.538 293.846 536.571C293.846 538.604 279.855 552.388 277.601 552.388C275.348 552.388 261.249 538.604 261.249 536.571C261.249 534.538 275.348 520.754 277.601 520.754Z" fill="#EEF3FB"/>
<path fill-rule="evenodd" clip-rule="evenodd" d="M1160.71 520.861C1162.96 520.861 1176.95 534.644 1176.95 536.678C1176.95 538.711 1162.96 552.495 1160.71 552.495C1158.45 552.495 1144.36 538.711 1144.36 536.678C1144.36 534.644 1158.45 520.861 1160.71 520.861Z" fill="#EEF3FB"/>
<path fill-rule="evenodd" clip-rule="evenodd" d="M89.8857 92.0383C92.1394 92.0383 106.131 105.822 106.131 107.855C106.131 109.889 92.1394 123.672 89.8857 123.672C87.632 123.672 73.5337 109.889 73.5337 107.855C73.5337 105.822 87.632 92.0383 89.8857 92.0383Z" fill="#FBEBFF"/>
<path fill-rule="evenodd" clip-rule="evenodd" d="M1254.42 547.721C1258.92 547.721 1286.91 575.289 1286.91 579.355C1286.91 583.422 1258.92 610.989 1254.42 610.989C1249.91 610.989 1221.71 583.422 1221.71 579.355C1221.71 575.289 1249.91 547.721 1254.42 547.721Z" fill="#FBEBFF"/>
<path fill-rule="evenodd" clip-rule="evenodd" d="M562.012 126.673C562.913 126.673 568.51 132.187 568.51 133C568.51 133.813 562.913 139.327 562.012 139.327C561.11 139.327 555.471 133.813 555.471 133C555.471 132.187 561.11 126.673 562.012 126.673Z" fill="#EEF3FB"/>
<path fill-rule="evenodd" clip-rule="evenodd" d="M62.0834 473.744C62.9849 473.744 68.5814 479.258 68.5814 480.071C68.5814 480.884 62.9849 486.398 62.0834 486.398C61.1819 486.398 55.5426 480.884 55.5426 480.071C55.5426 479.258 61.1819 473.744 62.0834 473.744Z" fill="#FFC729"/>
<path fill-rule="evenodd" clip-rule="evenodd" d="M1283.08 83.7443C1283.98 83.7443 1289.58 89.2577 1289.58 90.0711C1289.58 90.8844 1283.98 96.3979 1283.08 96.3979C1282.18 96.3979 1276.54 90.8844 1276.54 90.0711C1276.54 89.2577 1282.18 83.7443 1283.08 83.7443Z" fill="#EDF1F7"/>
<path fill-rule="evenodd" clip-rule="evenodd" d="M1258.71 4.86067C1260.96 4.86067 1274.95 18.6443 1274.95 20.6777C1274.95 22.711 1260.96 36.4947 1258.71 36.4947C1256.45 36.4947 1242.36 22.711 1242.36 20.6777C1242.36 18.6443 1256.45 4.86067 1258.71 4.86067Z" fill="#FBEBFF"/>
<path fill-rule="evenodd" clip-rule="evenodd" d="M579.083 21.7443C579.985 21.7443 585.581 27.2577 585.581 28.0711C585.581 28.8844 579.985 34.3979 579.083 34.3979C578.182 34.3979 572.543 28.8844 572.543 28.0711C572.543 27.2577 578.182 21.7443 579.083 21.7443Z" fill="#EC9FFF"/>
</svg>
